<svg id="Layer_1" data-name="Layer 1" xmlns="http://www.w3.org/2000/svg" viewBox="0 0 1080 1080"><defs><style>.cls-1{font-size:99.35px;font-family:Syncopate-Bold, Syncopate;font-weight:700;}.cls-1,.cls-2{fill:#231f20;}</style></defs><text class="cls-1" transform="translate(350.64 575.27)">bluepen</text><path class="cls-2" d="M352.05,449.81c-.11.11-.33.22-.44.33L196.84,539.2a6,6,0,0,1-6,0L90.28,481a29.93,29.93,0,0,1-15-26V280.81a12.84,12.84,0,0,1,19.27-11.13l257,148.4c.11,0,.11.11.22.11C363.84,425.24,363.84,442.54,352.05,449.81Z"/><path class="cls-2" d="M352.05,630.19c-.11-.11-.33-.22-.44-.33L196.84,540.8a6,6,0,0,0-6,0L90.28,599a29.93,29.93,0,0,0-15,26V799.19a12.85,12.85,0,0,0,19.28,11.13l257-148.4c.11,0,.11-.11.22-.11C363.84,654.76,363.84,637.46,352.05,630.19Z"/></svg>