<svg id="Layer_1" data-name="Layer 1" xmlns="http://www.w3.org/2000/svg" viewBox="0 0 492.92 639.04"><defs><style>.cls-1{fill:#231f20;}.cls-2{fill:#2956a8;}.cls-3{fill:#6ec9f1;}</style></defs><rect class="cls-1" width="492.92" height="639.04"/><path class="cls-2" d="M380.74,228.47c-.11.11-.33.22-.44.33L223.07,319.27a1.91,1.91,0,0,1-1.88,0L118.31,259.72a30,30,0,0,1-15-26.06V62.29A14.76,14.76,0,0,1,125.43,49.5L380.3,196.66c.11,0,.11.11.22.11C392.56,203.84,392.56,221.18,380.74,228.47Z"/><path class="cls-3" d="M380.8,410.57c-.11-.11-.33-.22-.44-.33L223.13,319.77a1.86,1.86,0,0,0-1.88,0L118.36,379.31a30,30,0,0,0-15,26.07V576.74a14.77,14.77,0,0,0,22.15,12.79L380.36,442.38c.11,0,.11-.11.22-.11C392.62,435.2,392.62,417.86,380.8,410.57Z"/></svg>