<svg id="Layer_1" data-name="Layer 1" xmlns="http://www.w3.org/2000/svg" viewBox="0 0 492.92 639.04"><defs><style>.cls-1{fill:#2956a8;}.cls-2{fill:#6ec9f1;}</style></defs><path class="cls-1" d="M376,229.47c-.11.11-.33.23-.44.34L218.31,320.28a1.88,1.88,0,0,1-1.88,0L113.54,260.73a30,30,0,0,1-15-26.06V63.3a14.77,14.77,0,0,1,22.15-12.79L375.54,197.67c.11,0,.11.11.22.11C387.8,204.84,387.8,222.19,376,229.47Z"/><path class="cls-2" d="M376,411.58c-.11-.11-.33-.22-.45-.33L218.37,320.78a1.86,1.86,0,0,0-1.88,0L113.6,380.32a30,30,0,0,0-15,26.07V577.75a14.77,14.77,0,0,0,22.15,12.79L375.59,443.39c.12,0,.12-.11.23-.11C387.86,436.21,387.86,418.87,376,411.58Z"/></svg>