<svg id="visual" viewBox="0 0 540 960" width="540" height="960" xmlns="http://www.w3.org/2000/svg" xmlns:xlink="http://www.w3.org/1999/xlink" version="1.1"><rect x="0" y="0" width="540" height="960" fill="#cfedfa"></rect><defs><linearGradient id="grad1_0" x1="0%" y1="0%" x2="100%" y2="100%"><stop offset="30%" stop-color="#e6e2fd" stop-opacity="1"></stop><stop offset="70%" stop-color="#e6e2fd" stop-opacity="1"></stop></linearGradient></defs><defs><linearGradient id="grad2_0" x1="0%" y1="0%" x2="100%" y2="100%"><stop offset="30%" stop-color="#e6e2fd" stop-opacity="1"></stop><stop offset="70%" stop-color="#e6e2fd" stop-opacity="1"></stop></linearGradient></defs><g transform="translate(540, 0)"><path d="M0 216C-26.5 208.7 -53 201.5 -79.6 192.2C-106.2 182.9 -132.9 171.6 -152.7 152.7C-172.6 133.9 -185.5 107.5 -194.9 80.7C-204.3 54 -210.2 27 -216 0L0 0Z" fill="#57a3d9"></path></g><g transform="translate(0, 960)"><path d="M0 -216C27.1 -210.6 54.2 -205.2 81.1 -195.9C108 -186.5 134.7 -173.1 152.7 -152.7C170.8 -132.4 180.3 -105.1 189.4 -78.5C198.5 -51.8 207.3 -25.9 216 0L0 0Z" fill="#57a3d9"></path></g></svg>