<svg id="Layer_1" data-name="Layer 1" xmlns="http://www.w3.org/2000/svg" viewBox="0 0 492.92 492.92"><defs><style>.cls-1{fill:#fff;}.cls-2{fill:#2956a8;}.cls-3{fill:#6ec9f1;}</style></defs><rect class="cls-1" width="492.92" height="492.92" rx="68"/><path class="cls-2" d="M351,175.61c-.09.08-.26.17-.35.25L228.26,246.27a1.46,1.46,0,0,1-1.46,0l-80.07-46.34A23.36,23.36,0,0,1,135,179.65V46.29a11.49,11.49,0,0,1,17.24-9.95L350.61,150.85c.09,0,.09.09.17.09A14.41,14.41,0,0,1,351,175.61Z"/><path class="cls-3" d="M351,317.32c-.09-.09-.26-.17-.34-.26l-122.35-70.4a1.48,1.48,0,0,0-1.47,0L146.78,293a23.34,23.34,0,0,0-11.69,20.29V446.63a11.49,11.49,0,0,0,17.23,9.95L350.66,342.07c.08,0,.08-.09.17-.09A14.4,14.4,0,0,0,351,317.32Z"/></svg>